<svg xmlns="http://www.w3.org/2000/svg" width="17.999" height="17.999" viewBox="0 0 17.999 17.999">
    <g id="prefix__ic_sns_instagram" transform="translate(3.999 -.001)">
        <path id="prefix___-g-sns_instagram" d="M9.986 0c1.568 0 1.912.016 2.724.053a6.6 6.6 0 0 1 2.19.42 4.411 4.411 0 0 1 1.594 1.038A4.412 4.412 0 0 1 17.528 3.1a6.606 6.606 0 0 1 .418 2.185C17.99 6.249 18 6.556 18 9s-.01 2.751-.054 3.711a6.606 6.606 0 0 1-.418 2.185 4.6 4.6 0 0 1-2.628 2.632 6.606 6.606 0 0 1-2.185.418C11.751 17.99 11.444 18 9 18s-2.751-.01-3.711-.054a6.606 6.606 0 0 1-2.189-.418 4.412 4.412 0 0 1-1.594-1.038A4.411 4.411 0 0 1 .473 14.9a6.6 6.6 0 0 1-.418-2.185C.017 11.9 0 11.554 0 9.986V8.014C0 6.446.017 6.1.054 5.289A6.6 6.6 0 0 1 .473 3.1a4.411 4.411 0 0 1 1.038-1.589A4.411 4.411 0 0 1 3.1.473 6.6 6.6 0 0 1 5.289.054C6.1.017 6.446 0 8.014 0zm-.448 1.622H8.463c-1.915 0-2.226.012-3.1.052a4.979 4.979 0 0 0-1.671.31 2.788 2.788 0 0 0-1.035.673 2.788 2.788 0 0 0-.673 1.035 4.979 4.979 0 0 0-.31 1.671c-.04.873-.051 1.184-.052 3.1v1.075c0 1.915.012 2.226.052 3.1a4.979 4.979 0 0 0 .31 1.671 2.789 2.789 0 0 0 .673 1.035 2.788 2.788 0 0 0 1.035.673 4.979 4.979 0 0 0 1.671.31c.873.04 1.184.051 3.1.052h1.075c1.916 0 2.226-.012 3.1-.052a4.979 4.979 0 0 0 1.671-.31 2.981 2.981 0 0 0 1.708-1.708 4.979 4.979 0 0 0 .31-1.671c.04-.873.051-1.184.052-3.1V8.463c0-1.915-.012-2.226-.052-3.1a4.979 4.979 0 0 0-.31-1.671 2.788 2.788 0 0 0-.673-1.035 2.788 2.788 0 0 0-1.035-.673 4.979 4.979 0 0 0-1.671-.31c-.874-.04-1.185-.051-3.1-.052zM9 4.378A4.622 4.622 0 1 1 4.378 9 4.622 4.622 0 0 1 9 4.378zM9 6a3 3 0 1 0 3 3 3 3 0 0 0-3-3zm4.8-2.884a1.08 1.08 0 1 1-1.08 1.08 1.08 1.08 0 0 1 1.08-1.08z" data-name="-g-sns_instagram" transform="translate(-4)" style="fill:#1e1e1e;fill-rule:evenodd"/>
    </g>
</svg>
