<svg xmlns="http://www.w3.org/2000/svg" width="18" height="18" viewBox="0 0 18 18">
    <g id="prefix__ic_sns_facebook" transform="translate(15)">
        <path id="prefix___-g-sns_facebook" d="M17.007 18H12.42v-6.971h2.34l.351-2.716H12.42V6.578c0-.786.219-1.322 1.346-1.322H15.2v-2.43a19.322 19.322 0 0 0-2.1-.107A3.273 3.273 0 0 0 9.615 6.31v2H7.269v2.716h2.346V18H.993A.994.994 0 0 1 0 17.006V.994A.993.993 0 0 1 .993 0h16.014A.993.993 0 0 1 18 .994v16.012a.994.994 0 0 1-.993.994z" data-name="-g-sns_facebook" transform="translate(-15)" style="fill:#1e1e1e;fill-rule:evenodd"/>
    </g>
</svg>
