<svg xmlns="http://www.w3.org/2000/svg" width="18" height="18" viewBox="0 0 18 18">
    <g id="prefix___-g-ic_login_github-copy" data-name="-g-ic_login_github-copy" transform="translate(0 1)">
        <path id="prefix__ic_login_github" d="M9 0a9.116 9.116 0 0 0-9 9.228 9.211 9.211 0 0 0 6.155 8.756c.45.085.614-.2.614-.445 0-.219-.008-.8-.012-1.569-2.5.557-3.032-1.237-3.032-1.237a2.429 2.429 0 0 0-1-1.35c-.817-.572.062-.561.062-.561a1.9 1.9 0 0 1 1.378.951 1.89 1.89 0 0 0 2.619.766 1.991 1.991 0 0 1 .571-1.233c-2-.233-4.1-1.025-4.1-4.561a3.617 3.617 0 0 1 .927-2.476 3.393 3.393 0 0 1 .088-2.442s.755-.248 2.475.946a8.317 8.317 0 0 1 4.506 0c1.718-1.194 2.472-.946 2.472-.946a3.394 3.394 0 0 1 .09 2.442 3.611 3.611 0 0 1 .925 2.476c0 3.545-2.1 4.325-4.109 4.553a2.234 2.234 0 0 1 .611 1.709c0 1.234-.011 2.229-.011 2.532 0 .247.162.534.619.444A9.214 9.214 0 0 0 18 9.228 9.117 9.117 0 0 0 9 0" transform="translate(0 -1)" style="fill:#1e1e1e;fill-rule:evenodd"/>
    </g>
</svg>
