<svg xmlns="http://www.w3.org/2000/svg" id="prefix__img_guide_02" width="147" height="88" viewBox="0 0 147 88">
    <defs>
        <style>
            .prefix__cls-4{fill:#fff}.prefix__cls-2{fill:none}.prefix__cls-2,.prefix__cls-4,.prefix__cls-5{stroke:#1e1e1e;stroke-width:2px}.prefix__cls-5{fill:#5a96ff}
        </style>
    </defs>
    <g id="prefix__Artboard" transform="translate(-493 -338)">
        <g id="prefix___04" data-name="4" transform="translate(493 338)">
            <path id="prefix__Rectangle" d="M0 0H147V88H0z" style="fill:#fff"/>
            <path id="prefix__Rectangle-2" d="M0 0H102V58H0z" class="prefix__cls-2" data-name="Rectangle" transform="translate(5 5)"/>
            <path id="prefix__Rectangle-3" d="M0 0H24V11H0z" class="prefix__cls-2" data-name="Rectangle" transform="translate(44 63)"/>
            <path id="prefix__Rectangle-4" d="M0 0H28V42H0z" class="prefix__cls-2" data-name="Rectangle" transform="translate(107 27)"/>
            <path id="prefix__Rectangle-5" d="M0 0H42V63H0z" class="prefix__cls-2" data-name="Rectangle" transform="translate(100 20)"/>
            <path id="prefix__Rectangle-6" d="M0 0H56V9H0z" class="prefix__cls-2" data-name="Rectangle" transform="translate(28 74)"/>
            <path id="prefix__Oval" d="M34 63A29 29 0 1 0 5 34a29 29 0 0 0 29 29z" style="stroke-dasharray:2;fill-rule:evenodd;stroke:#1e1e1e;stroke-width:2px;fill:none"/>
            <rect id="prefix__Rectangle-7" width="8" height="8" class="prefix__cls-4" data-name="Rectangle" rx="4" transform="translate(103 16)"/>
            <rect id="prefix__Rectangle-8" width="8" height="8" class="prefix__cls-4" data-name="Rectangle" rx="4" transform="translate(1 1)"/>
            <rect id="prefix__Rectangle-9" width="8" height="8" class="prefix__cls-5" data-name="Rectangle" rx="4" transform="translate(30 1)"/>
            <rect id="prefix__Rectangle-10" width="8" height="8" class="prefix__cls-4" data-name="Rectangle" rx="4" transform="translate(103 59)"/>
            <rect id="prefix__Rectangle-11" width="8" height="8" class="prefix__cls-4" data-name="Rectangle" rx="4" transform="translate(117 72)"/>
            <rect id="prefix__Rectangle-12" width="8" height="8" class="prefix__cls-4" data-name="Rectangle" rx="4" transform="translate(138 16)"/>
            <rect id="prefix__Rectangle-13" width="8" height="8" class="prefix__cls-5" data-name="Rectangle" rx="4" transform="translate(138 79)"/>
            <path id="prefix__Rectangle-14" d="M0 0H8V8H0z" class="prefix__cls-5" data-name="Rectangle" transform="translate(64 59)"/>
            <rect id="prefix__Rectangle-Copy-2" width="8" height="8" class="prefix__cls-4" rx="4" transform="translate(1 59)"/>
            <rect id="prefix__Rectangle-Copy" width="8" height="8" class="prefix__cls-4" rx="4" transform="translate(24 79)"/>
        </g>
    </g>
</svg>
