<svg xmlns="http://www.w3.org/2000/svg" width="117" height="44.988" viewBox="0 0 117 44.988">
    <defs>
        <style>
            .prefix__cls-1{fill:#fff}
        </style>
    </defs>
    <g id="prefix__boostcamp_bi_white" transform="translate(-813.289 -648.34)">
        <path id="prefix__패스_53" d="M906.81 704.63a2.525 2.525 0 0 1-1.1.2 1.166 1.166 0 0 1-1.07-.529 2.854 2.854 0 0 1-.333-1.514v-5.047h3.1v-2.363h-3.1v-3.2l-2.9.779v2.423h-1.969v2.363h1.969v5.244a7.339 7.339 0 0 0 .2 1.76 3.437 3.437 0 0 0 .652 1.366 2.943 2.943 0 0 0 1.193.874 4.666 4.666 0 0 0 1.8.309 5.381 5.381 0 0 0 1.872-.309 5.84 5.84 0 0 0 1.7-1.022l-1.231-1.8a4.926 4.926 0 0 1-.776.468" class="prefix__cls-1" data-name="패스 53" transform="translate(-36.356 -18.498)"/>
        <path id="prefix__패스_54" d="M816.191 703.33a4.075 4.075 0 0 0 .713.185 7.844 7.844 0 0 0 1.156.061 3.648 3.648 0 0 0 1.549-.307 3.488 3.488 0 0 0 1.132-.824 3.424 3.424 0 0 0 .7-1.193 4.233 4.233 0 0 0 .233-1.389 5.043 5.043 0 0 0-.159-1.279 3.3 3.3 0 0 0-.5-1.095 2.537 2.537 0 0 0-.873-.762 2.653 2.653 0 0 0-1.266-.283 2.72 2.72 0 0 0-2 .677 2.508 2.508 0 0 0-.676 1.857zm-2.9-13.277l2.9-.765v5.655a3.959 3.959 0 0 1 1.132-.664 4.978 4.978 0 0 1 2.017-.369 5.076 5.076 0 0 1 2.225.468 5.138 5.138 0 0 1 1.66 1.254 5.352 5.352 0 0 1 1.046 1.869 7.265 7.265 0 0 1 .356 2.287 6.569 6.569 0 0 1-.455 2.447 5.838 5.838 0 0 1-1.3 1.992 6.306 6.306 0 0 1-2.053 1.353 6.962 6.962 0 0 1-2.706.5 14.574 14.574 0 0 1-2.767-.245 15.787 15.787 0 0 1-2.054-.517z" class="prefix__cls-1" data-name="패스 54" transform="translate(0 -17.281)"/>
        <path id="prefix__패스_55" d="M840.889 706.844a3 3 0 0 0 1.451-.332 3.09 3.09 0 0 0 1.021-.873 3.846 3.846 0 0 0 .6-1.18 4.351 4.351 0 0 0 .2-1.279 4.4 4.4 0 0 0-.2-1.266 3.659 3.659 0 0 0-.6-1.18 3.161 3.161 0 0 0-1.021-.861 3.334 3.334 0 0 0-2.9 0 3.161 3.161 0 0 0-1.02.861 3.65 3.65 0 0 0-.6 1.18 4.37 4.37 0 0 0-.2 1.266 4.323 4.323 0 0 0 .2 1.279 3.837 3.837 0 0 0 .6 1.18 3.09 3.09 0 0 0 1.02.873 3 3 0 0 0 1.451.332m-6.2-3.664a6.236 6.236 0 0 1 .455-2.373 6.043 6.043 0 0 1 1.266-1.955 5.978 5.978 0 0 1 1.955-1.327 6.7 6.7 0 0 1 5.041 0 5.981 5.981 0 0 1 1.955 1.327 6.044 6.044 0 0 1 1.266 1.955 6.311 6.311 0 0 1-1.266 6.714 5.882 5.882 0 0 1-1.955 1.34 6.7 6.7 0 0 1-5.041 0 5.88 5.88 0 0 1-1.955-1.34 6.256 6.256 0 0 1-1.721-4.341" class="prefix__cls-1" data-name="패스 55" transform="translate(-9.033 -20.549)"/>
        <path id="prefix__패스_56" d="M864.121 706.844a3 3 0 0 0 1.451-.332 3.093 3.093 0 0 0 1.021-.873 3.85 3.85 0 0 0 .6-1.18 4.342 4.342 0 0 0 .2-1.279 4.389 4.389 0 0 0-.2-1.266 3.663 3.663 0 0 0-.6-1.18 3.164 3.164 0 0 0-1.021-.861 3.334 3.334 0 0 0-2.9 0 3.164 3.164 0 0 0-1.021.861 3.656 3.656 0 0 0-.6 1.18 4.348 4.348 0 0 0-.2 1.266 4.3 4.3 0 0 0 .2 1.279 3.843 3.843 0 0 0 .6 1.18 3.093 3.093 0 0 0 1.021.873 3 3 0 0 0 1.451.332m-6.2-3.664a6.224 6.224 0 0 1 .456-2.373 6.04 6.04 0 0 1 1.266-1.955 5.979 5.979 0 0 1 1.955-1.327 6.7 6.7 0 0 1 5.041 0 5.99 5.99 0 0 1 1.955 1.327 6.059 6.059 0 0 1 1.266 1.955 6.311 6.311 0 0 1-1.266 6.714 5.891 5.891 0 0 1-1.955 1.34 6.7 6.7 0 0 1-5.041 0 5.881 5.881 0 0 1-1.955-1.34 6.26 6.26 0 0 1-1.722-4.341" class="prefix__cls-1" data-name="패스 56" transform="translate(-18.837 -20.549)"/>
        <path id="prefix__패스_57" d="M882.007 705.663a4.317 4.317 0 0 0 1.365.9 4.685 4.685 0 0 0 1.881.357 3.812 3.812 0 0 0 1.5-.246.837.837 0 0 0 .566-.812.9.9 0 0 0-.519-.862 4.674 4.674 0 0 0-.885-.393 15.247 15.247 0 0 0-1.526-.418 10.572 10.572 0 0 1-1.229-.394 4.651 4.651 0 0 1-1.193-.677 3.653 3.653 0 0 1-.91-1.032 2.772 2.772 0 0 1-.357-1.439 2.86 2.86 0 0 1 .418-1.537 3.689 3.689 0 0 1 1.094-1.131 5.41 5.41 0 0 1 1.525-.7 6.135 6.135 0 0 1 1.709-.246 9.142 9.142 0 0 1 2.595.32 6.177 6.177 0 0 1 1.93.959l-1.5 2.041a5.048 5.048 0 0 0-1.229-.628 5.194 5.194 0 0 0-1.8-.283 2.473 2.473 0 0 0-1.439.308.915.915 0 0 0-.406.75q0 .542.676.848a12.611 12.611 0 0 0 2.1.651 9.367 9.367 0 0 1 1.587.492 4.377 4.377 0 0 1 1.2.737 3.035 3.035 0 0 1 .775 1.045 3.51 3.51 0 0 1 .27 1.439 2.959 2.959 0 0 1-.394 1.512 3.548 3.548 0 0 1-1.07 1.143 5.339 5.339 0 0 1-1.574.725 6.861 6.861 0 0 1-1.906.258 8.849 8.849 0 0 1-2.926-.455 4.875 4.875 0 0 1-2.09-1.34z" class="prefix__cls-1" data-name="패스 57" transform="translate(-28.264 -20.549)"/>
        <path id="prefix__패스_58" d="M928.207 707.434a6.235 6.235 0 0 1-1.919 1.377 6.05 6.05 0 0 1-2.582.516 7.326 7.326 0 0 1-2.631-.443 5.3 5.3 0 0 1-1.943-1.254 5.48 5.48 0 0 1-1.2-1.943 7.179 7.179 0 0 1-.418-2.509 6.239 6.239 0 0 1 .455-2.373 5.916 5.916 0 0 1 3.222-3.283 6.716 6.716 0 0 1 5.078.012 5.93 5.93 0 0 1 1.968 1.365l-1.845 1.87a3.558 3.558 0 0 0-1.155-.886 3.484 3.484 0 0 0-1.525-.32 3.211 3.211 0 0 0-1.451.307 3.1 3.1 0 0 0-1.021.8 3.226 3.226 0 0 0-.6 1.155 4.719 4.719 0 0 0-.2 1.352 4.395 4.395 0 0 0 .2 1.3 3.526 3.526 0 0 0 .6 1.155 3.015 3.015 0 0 0 2.471 1.156 3.676 3.676 0 0 0 1.574-.332 3.56 3.56 0 0 0 1.2-.9z" class="prefix__cls-1" data-name="패스 58" transform="translate(-43.983 -20.549)"/>
        <path id="prefix__패스_59" d="M945.652 703.745l-.86-.049q-.345-.024-.726-.037t-.651-.012a2.781 2.781 0 0 0-1.968.553 1.726 1.726 0 0 0-.566 1.267 1.392 1.392 0 0 0 .529 1.155 2.478 2.478 0 0 0 1.562.418 2.992 2.992 0 0 0 1.844-.64 2.536 2.536 0 0 0 .6-.688 1.612 1.612 0 0 0 .233-.836zm0 4.131a3.973 3.973 0 0 1-1.427 1.009 5.046 5.046 0 0 1-2.139.443 4.677 4.677 0 0 1-1.414-.221 4 4 0 0 1-1.279-.676 3.381 3.381 0 0 1-.934-1.168 3.7 3.7 0 0 1-.357-1.673 4.043 4.043 0 0 1 .369-1.758 3.654 3.654 0 0 1 1.033-1.3 4.574 4.574 0 0 1 1.6-.8 7.407 7.407 0 0 1 2.066-.271q.344 0 .762.012t.811.036l.91.05v-.271a1.574 1.574 0 0 0-.688-1.353 3.022 3.022 0 0 0-1.8-.492 5.024 5.024 0 0 0-1.968.32 8.707 8.707 0 0 0-1.3.688l-1.328-1.968q.345-.245.787-.5a6.113 6.113 0 0 1 1.033-.467 8.564 8.564 0 0 1 1.365-.345 10.687 10.687 0 0 1 1.807-.135 6.167 6.167 0 0 1 2 .307 4.6 4.6 0 0 1 1.537.861 3.744 3.744 0 0 1 .984 1.328 4.1 4.1 0 0 1 .344 1.684v7.747h-2.705z" class="prefix__cls-1" data-name="패스 59" transform="translate(-52.674 -20.549)"/>
        <path id="prefix__패스_60" d="M959.973 697.533h2.779l.074 1.3c.147-.163.316-.34.5-.529a3 3 0 0 1 .689-.5 4.385 4.385 0 0 1 .934-.37 4.545 4.545 0 0 1 1.217-.147 3.974 3.974 0 0 1 3.468 1.672 5.51 5.51 0 0 1 1.808-1.291 5.6 5.6 0 0 1 2.151-.381 4.293 4.293 0 0 1 3.357 1.291 4.993 4.993 0 0 1 1.168 3.48v7.009h-2.9v-6.985a2.434 2.434 0 0 0-.554-1.709 1.952 1.952 0 0 0-1.512-.6 2.49 2.49 0 0 0-1.082.233 2.541 2.541 0 0 0-.849.652 2.878 2.878 0 0 0-.541.972 3.748 3.748 0 0 0-.185 1.193v6.247h-2.9v-6.985a2.436 2.436 0 0 0-.554-1.709 1.953 1.953 0 0 0-1.512-.6 2.492 2.492 0 0 0-1.083.233 2.543 2.543 0 0 0-.848.652 2.881 2.881 0 0 0-.541.972 3.731 3.731 0 0 0-.185 1.193v6.247h-2.9z" class="prefix__cls-1" data-name="패스 60" transform="translate(-61.904 -20.657)"/>
        <path id="prefix__패스_61" d="M998.3 706.256a4.02 4.02 0 0 0 2.607.714 3.091 3.091 0 0 0 1.4-.308 3.289 3.289 0 0 0 1.045-.811 3.533 3.533 0 0 0 .652-1.143 4.041 4.041 0 0 0 .221-1.328 5.693 5.693 0 0 0-.16-1.378 3.124 3.124 0 0 0-.516-1.119 2.547 2.547 0 0 0-.922-.762 3.128 3.128 0 0 0-1.4-.283 2.565 2.565 0 0 0-1.205.283 3.089 3.089 0 0 0-.922.725 3.381 3.381 0 0 0-.59.972 2.765 2.765 0 0 0-.209 1.021zm-2.877-8.706h2.8l.073 1.3a5.048 5.048 0 0 1 .554-.516 4.053 4.053 0 0 1 .786-.492 5.461 5.461 0 0 1 1.033-.369 5.221 5.221 0 0 1 1.291-.147 4.682 4.682 0 0 1 3.911 1.882 6 6 0 0 1 .959 1.93 7.878 7.878 0 0 1 .32 2.238 6.1 6.1 0 0 1-.394 2.312 6.439 6.439 0 0 1-.984 1.672 5.491 5.491 0 0 1-2.152 1.648 6.4 6.4 0 0 1-2.4.467 8.312 8.312 0 0 1-.972-.049 5.607 5.607 0 0 1-.738-.135 5.446 5.446 0 0 1-.615-.2l-.6-.234V714h-2.877z" class="prefix__cls-1" data-name="패스 61" transform="translate(-76.865 -20.675)"/>
        <path id="prefix__패스_62" d="M995.608 658.384a2.906 2.906 0 0 1 .742-2.838l5.848-5.849-1.357-1.357-5.841 5.846a2.9 2.9 0 0 1-4.111 0l-5.847-5.847-1.356 1.357 5.846 5.846a2.9 2.9 0 0 1 0 4.112l-5.846 5.846 1.357 1.357 5.847-5.848a2.907 2.907 0 0 1 4.11 0l5.846 5.847 1.356-1.357-5.847-5.846a2.907 2.907 0 0 1-.743-1.271" class="prefix__cls-1" data-name="패스 62" transform="translate(-71.91)"/>
    </g>
</svg>
